<?xml version="1.0" encoding="iso-8859-1"?>
<!-- Generator: Adobe Illustrator 19.0.0, SVG Export Plug-In . SVG Version: 6.00 Build 0)  -->
<svg version="1.1" id="Capa_1" xmlns="http://www.w3.org/2000/svg" xmlns:xlink="http://www.w3.org/1999/xlink" x="0px" y="0px"
	 viewBox="0 0 512 512" style="enable-background:new 0 0 512 512;" xml:space="preserve">
<path style="fill:#00C3FF;" d="M255.878,235.685h-15.795c0-12.03-77.438-168.421-200.746-168.421
	c-32.08,0-31.836,16.04-31.836,24.06c0,24.06,49.78,66.468,31.836,120.301c-6.401,19.201,23.02,29.447,60.661,34.847l-0.259-0.01
	c-52.798,37.427-61.525,94.179-28.076,141.604c37.427,53.066,80.868,58.814,112.281,56.14
	c30.071-2.56,68.693-103.059,71.936-111.633v-96.888H255.878z"/>
<path style="fill:#00AAF0;" d="M256.123,235.877c-54.37-7.821-165.98-31.507-213.03-48.279c0.023,7.732-0.99,15.725-3.756,24.026
	c-6.401,19.201,23.02,29.447,60.661,34.847l-0.259-0.01c-1.766,1.252,154.916-2.727,156.141-2.757
	C256.422,243.691,255.606,235.957,256.123,235.877z"/>
<path style="fill:#8CDCFF;" d="M39.336,67.264c-32.08,0-31.836,16.04-31.836,24.06c0,5.778,2.908,12.641,7.021,20.44
	c79.182,46.399,185.25,106.53,225.56,123.921C240.083,223.655,162.645,67.264,39.336,67.264z"/>
<path style="fill:#5D5360;" d="M39.336,67.264c-32.08,0-31.836,16.04-31.836,24.06c0,12.947,14.378,31.247,24.898,53.74
	c17.784-27.836,51.807-55.765,112.353-37.864C115.283,84.147,79.8,67.264,39.336,67.264z"/>
<path style="fill:#8CDCFF;" d="M132.569,345.14l-78.226,5.166c3.005,12.876,8.759,25.624,17.318,37.759
	c6.552,9.289,13.293,17.051,20.115,23.649l46.564-55.152C142.297,351.876,138.689,344.736,132.569,345.14z"/>
<path style="fill:#00C3FF;" d="M256.123,235.685h15.795c0-12.03,77.438-168.421,200.746-168.421c32.08,0,31.836,16.04,31.836,24.06
	c0,24.06-49.78,66.468-31.836,120.301c6.401,19.201-23.02,29.447-60.661,34.847l0.259-0.01
	c52.798,37.427,61.525,94.179,28.076,141.604c-37.427,53.066-80.868,58.814-112.281,56.14
	c-30.071-2.56-68.693-103.059-71.936-111.633v-96.888H256.123z"/>
<path style="fill:#00AAF0;" d="M255.878,235.877c54.37-7.821,165.98-31.507,213.03-48.279c-0.023,7.732,0.99,15.725,3.756,24.026
	c6.401,19.201-23.02,29.447-60.661,34.847l0.259-0.01c1.766,1.252-154.916-2.727-156.141-2.757
	C255.578,243.691,256.395,235.957,255.878,235.877z"/>
<path style="fill:#8CDCFF;" d="M472.664,67.264c32.08,0,31.836,16.04,31.836,24.06c0,5.778-2.908,12.641-7.021,20.44
	c-79.182,46.399-185.25,106.53-225.56,123.921C271.918,223.655,349.356,67.264,472.664,67.264z"/>
<path style="fill:#5D5360;" d="M472.664,67.264c32.08,0,31.836,16.04,31.836,24.06c0,12.947-14.378,31.247-24.898,53.74
	c-17.784-27.836-51.807-55.765-112.353-37.864C396.718,84.147,432.201,67.264,472.664,67.264z"/>
<path style="fill:#8CDCFF;" d="M379.431,345.14l78.226,5.166c-3.005,12.876-8.759,25.624-17.318,37.759
	c-6.552,9.289-13.293,17.051-20.115,23.649l-46.564-55.152C369.704,351.876,373.311,344.736,379.431,345.14z"/>
<ellipse style="fill:#4B3F4E;" cx="256.12" cy="279.791" rx="24.06" ry="52.13"/>
<circle style="fill:#5D5360;" cx="255.88" cy="211.621" r="16.04"/>
<path d="M506.374,71.481c-6.325-7.885-17.352-11.718-33.709-11.718c-67.614,0-120.147,44.767-152.31,82.321
	c-19.375,22.622-32.962,44.318-40.949,58.536c-0.336,0.599-0.857,1.535-1.5,2.711c-1.288-3.408-3.345-6.44-5.958-8.886
	c1.885-7.09,7.063-25.822,13.859-44.363c15.357-41.903,24.128-42.981,24.202-42.981c0.013,0.002,1.396,0.413,3.583,4.093
	c2.115,3.563,6.717,4.735,10.278,2.619c3.562-2.115,4.734-6.717,2.619-10.278c-6.32-10.643-13.64-12.003-18.669-11.272
	c-15.922,2.318-27.915,30.076-36.584,53.999c-6.159,16.996-10.881,33.578-13.143,41.931c-0.729-0.068-1.466-0.107-2.212-0.107
	s-1.484,0.039-2.212,0.107c-2.262-8.354-6.984-24.936-13.143-41.931c-8.669-23.923-20.662-51.68-36.584-53.999
	c-5.03-0.733-12.349,0.629-18.669,11.272c-2.115,3.561-0.943,8.163,2.619,10.278c3.562,2.116,8.164,0.943,10.278-2.619
	c2.186-3.68,3.569-4.09,3.572-4.092c0.092,0,8.849,1.095,24.177,42.884c6.805,18.551,12.003,37.352,13.894,44.459
	c-2.547,2.384-4.563,5.324-5.855,8.627c-0.579-1.057-1.046-1.896-1.358-2.451c-7.987-14.218-21.574-35.915-40.949-58.536
	c-32.163-37.554-84.696-82.321-152.31-82.321c-16.358,0-27.384,3.833-33.709,11.718C-0.003,78.499-0.001,86.726,0,91.145v0.179
	c0,10.32,6.5,21.779,14.028,35.048c12.858,22.667,28.861,50.877,18.193,82.881c-2.456,7.367-1.328,14.493,3.26,20.608
	c6.926,9.229,22.301,16.25,46.531,21.176c-43.007,38.712-50.059,93.74-16.48,141.351c17.606,24.965,38.384,42.332,61.755,51.62
	c13.866,5.511,28.51,8.229,44.47,8.229c4.18,0,8.452-0.187,12.821-0.559c9.474-0.806,19.23-7.857,29.826-21.556
	c7.576-9.794,15.682-23.137,24.091-39.658c3.686-7.241,7.092-14.421,10.127-21.11v26.73c0,4.143,3.358,7.5,7.5,7.5
	s7.5-3.357,7.5-7.5v-26.191c2.973,6.534,6.296,13.525,9.883,20.571c8.41,16.521,16.515,29.864,24.091,39.658
	c10.596,13.698,20.353,20.75,29.827,21.556c4.37,0.372,8.64,0.559,12.82,0.559c15.959,0,30.606-2.72,44.471-8.229
	c23.371-9.288,44.148-26.655,61.755-51.62c33.579-47.612,26.527-102.639-16.48-141.351c24.23-4.926,39.605-11.947,46.531-21.176
	c4.588-6.115,5.716-13.242,3.26-20.608c-10.668-32.004,5.334-60.214,18.193-82.881C505.5,113.103,512,101.644,512,91.324v-0.179
	C512.001,86.726,512.003,78.499,506.374,71.481z M295.885,259.599l92.404,54.95l-73.28-4.84l-27.358-32.404
	c-0.125-6.317-0.72-12.321-1.729-17.9C288.539,259.47,291.907,259.541,295.885,259.599z M256.122,324.426
	c-3.139,0-7.144-4.283-10.203-10.912c-4.04-8.753-6.357-21.043-6.357-33.719s2.317-24.966,6.357-33.719
	c3.059-6.628,7.064-10.912,10.203-10.912s7.144,4.283,10.203,10.912c4.04,8.753,6.357,21.043,6.357,33.719
	s-2.317,24.966-6.357,33.719C263.266,320.143,259.261,324.426,256.122,324.426z M196.991,309.709l-73.28,4.84l92.404-54.95
	c4.104-0.06,7.556-0.134,10.207-0.201c-0.994,5.495-1.589,11.401-1.726,17.613L196.991,309.709z M264.418,211.625
	c0,4.709-3.831,8.54-8.54,8.54s-8.54-3.831-8.54-8.54s3.831-8.54,8.54-8.54S264.418,206.916,264.418,211.625z M47.479,220.858
	c-1.63-2.173-1.928-4.161-1.028-6.862c8.498-25.492,3.125-48.514-5.417-68.116c0.686-2.393,6.72-20.46,34.22-29.726
	c3.617-1.219,6.013-4.841,5.292-8.589c-0.876-4.555-5.494-7.15-9.744-5.739c-20.706,6.894-32.008,18.305-38.032,27.339
	c-1.93-3.553-3.858-6.958-5.695-10.196C20.865,108.024,15,97.685,15,91.324v-0.182c-0.001-3.455-0.001-7.371,2.327-10.274
	c3.203-3.993,10.813-6.104,22.009-6.104c27.866,0,53.088,8.514,75.114,21.029c-3.669-0.037-7.252,0.021-10.718,0.2
	c-4.104,0.212-7.5,3.592-7.39,7.7c0.114,4.236,3.686,7.526,7.9,7.294c10.697-0.574,22.593-0.003,35.36,1.681
	c15.22,11.816,28.32,24.98,39.03,37.296c34.098,39.209,52.806,79.444,53.957,86.04c0.143,0.821,0.149,2.928-0.225,3.725
	c-0.681,1.45-1.324,2.967-1.925,4.548c-7.429,0.239-44.819,1.261-84.136-0.949C120.573,241.881,59.439,236.798,47.479,220.858z
	 M101.686,254.314c12.823,1.742,27.425,3.074,43.879,3.996c14.418,0.808,28.569,1.188,41.13,1.333L90.697,316.73l-30.678,2.026
	C63.281,294.87,77.385,272.306,101.686,254.314z M225.073,383.769c-7.977,15.659-15.568,28.182-22.564,37.217
	c-10.178,13.146-16.4,15.51-19.203,15.749c-23.52,2.001-44.449-2.225-63.116-12.807l10.663-12.629
	c2.672-3.165,2.273-7.897-0.892-10.569c-3.166-2.672-7.896-2.273-10.569,0.892l-11.78,13.952
	c-10.727-8.232-20.647-18.819-29.823-31.828c-11.453-16.239-17.511-33.228-18.393-49.915l124.154-8.201l-43.324,51.314
	c-2.672,3.164-2.273,7.896,0.892,10.568c1.408,1.189,3.125,1.77,4.834,1.77c2.132,0,4.251-0.904,5.734-2.662l74.354-88.067
	c3.018,18.408,10.445,32.425,20.194,38.104C242.276,346.589,234.53,365.203,225.073,383.769z M434.21,383.744
	c-9.175,13.009-19.096,23.596-29.823,31.827l-11.779-13.951c-2.671-3.163-7.403-3.563-10.569-0.892
	c-3.165,2.672-3.564,7.404-0.892,10.569l10.662,12.629c-18.667,10.582-39.596,14.807-63.115,12.808
	c-2.803-0.239-9.025-2.603-19.204-15.749c-6.996-9.035-14.587-21.558-22.564-37.217c-9.42-18.493-17.141-37.031-21.114-46.992
	c9.803-5.579,17.285-19.571,20.349-37.984l74.151,87.827c1.483,1.758,3.602,2.662,5.734,2.662c1.708,0,3.427-0.581,4.834-1.77
	c3.165-2.672,3.564-7.404,0.892-10.568l-43.324-51.314l124.154,8.201C451.721,350.516,445.664,367.505,434.21,383.744z
	 M451.981,318.756l-30.678-2.026l-95.998-57.087c12.562-0.146,26.714-0.526,41.13-1.333c16.454-0.922,31.055-2.254,43.879-3.996
	C434.615,272.306,448.719,294.87,451.981,318.756z M497,91.324c0,6.361-5.865,16.701-12.075,27.646
	c-1.837,3.238-3.765,6.643-5.695,10.196c-6.004-9.004-17.25-20.368-37.822-27.269c-3.621-1.215-7.722,0.361-9.35,3.816
	c-1.956,4.15,0.183,8.941,4.402,10.346c27.468,9.145,33.707,27.12,34.503,29.829c-8.54,19.6-13.91,42.62-5.414,68.108
	c0.9,2.701,0.603,4.689-1.028,6.862c-11.959,15.94-73.094,21.023-98.823,22.469c-38.892,2.185-75.901,1.21-83.889,0.957
	c-0.649-1.707-1.345-3.339-2.087-4.893c-0.401-0.841-0.311-3.388-0.311-3.388c1.067-6.29,19.859-46.831,53.957-86.04
	c10.709-12.315,23.81-25.479,39.03-37.296c12.648-1.667,24.442-2.244,35.059-1.696c4.088,0.211,7.817-2.733,8.175-6.811
	c0.373-4.247-2.846-7.925-7.069-8.151c-3.557-0.191-7.24-0.253-11.013-0.215c22.025-12.515,47.248-21.029,75.115-21.029
	c11.195,0,18.806,2.111,22.009,6.104c2.329,2.903,2.328,6.819,2.327,10.274L497,91.324L497,91.324z"/>
<g>
</g>
<g>
</g>
<g>
</g>
<g>
</g>
<g>
</g>
<g>
</g>
<g>
</g>
<g>
</g>
<g>
</g>
<g>
</g>
<g>
</g>
<g>
</g>
<g>
</g>
<g>
</g>
<g>
</g>
</svg>
