<?xml version="1.0" encoding="iso-8859-1"?>
<!-- Generator: Adobe Illustrator 19.0.0, SVG Export Plug-In . SVG Version: 6.00 Build 0)  -->
<svg version="1.1" id="Layer_1" xmlns="http://www.w3.org/2000/svg" xmlns:xlink="http://www.w3.org/1999/xlink" x="0px" y="0px"
	 viewBox="0 0 512.002 512.002" style="enable-background:new 0 0 512.002 512.002;" xml:space="preserve">
<g>
	<path style="fill:#CCA75E;" d="M396.164,451.797l-2.967,15.042c-0.386,1.958-2.093,3.365-4.081,3.365h-44.196
		c-2.509,0-4.467-2.167-4.227-4.656l2.416-25.034l12.41-128.489l49.948-6.752l-25.377,128.741c-0.104,0.501-0.125,1-0.042,1.49
		c0.145,1.104,0.739,2.104,1.666,2.782l12.817,9.334C395.841,448.567,396.487,450.202,396.164,451.797z"/>
	<path style="fill:#CCA75E;" d="M261.056,470.204H225.46c-1.531,0-2.936-0.823-3.685-2.146l-13.774-24.221l-19.771-34.763
		c-0.166-0.292-0.292-0.614-0.386-0.937l-9.984-35.148l-9.505-38.139l73.201-13.803l-15.148,73.203
		c-0.156,0.729-0.115,1.48,0.125,2.188l12.368,37.628c0.021,0.073,0.052,0.146,0.084,0.218c0.365,0.958,1.072,1.74,1.968,2.219
		l18.022,9.459c1.072,0.562,1.843,1.552,2.145,2.729l4.05,16.23C265.846,467.61,263.816,470.204,261.056,470.204z"/>
</g>
<g>
	<path style="fill:#F2E5CB;" d="M261.056,470.204H225.46c-1.531,0-2.936-0.823-3.685-2.146l-13.774-24.221l30.984-9.552
		c0.365,0.958,1.072,1.74,1.968,2.219l18.022,9.459c1.072,0.562,1.843,1.552,2.145,2.729l4.05,16.23
		C265.846,467.61,263.816,470.204,261.056,470.204z"/>
	<path style="fill:#F2E5CB;" d="M396.164,451.797l-2.967,15.042c-0.386,1.958-2.093,3.365-4.081,3.365h-44.196
		c-2.509,0-4.467-2.167-4.227-4.656l2.416-25.034l36.939-5.01c0.145,1.104,0.739,2.104,1.666,2.782l12.817,9.334
		C395.841,448.567,396.487,450.202,396.164,451.797z"/>
</g>
<path style="fill:#CCA75E;" d="M147.153,280.196h-26.695c-62.099,0-112.621-50.551-112.621-112.688S58.359,54.819,120.458,54.819
	h90.587c6.498,0,11.766,5.272,11.766,11.772c0,6.502-5.267,11.772-11.766,11.772h-90.587c-49.125,0-89.091,39.99-89.091,89.144
	c0,49.153,39.966,89.143,89.091,89.143h26.695c6.498,0,11.766,5.272,11.766,11.772S153.651,280.196,147.153,280.196z"/>
<path style="fill:#FBD476;" d="M504.163,103.507v20.982c0,16.98-13.751,30.741-30.72,30.741h-16.896l-12.591,111.607
	c-1.076,9.571-1.003,19.225,0.209,28.787l3.218,22.465l15.935,111.042c0.042,0.313,0.115,0.616,0.219,0.898
	c0.334,0.909,0.961,1.693,1.808,2.205l20.355,12.006c1.275,0.762,2.058,2.152,2.058,3.635l-2.717,18.077
	c0,2.351-1.902,4.253-4.242,4.253h-44.701c-1.954,0-3.668-1.358-4.117-3.26l-6.228-25.997c0,0-14.054-54.575-24.566-102.546
	c0,0-0.052,0.01-0.157,0.03c-73.112,13.689-115.179-4.377-115.179-4.377s-79.433,9.759-81.053,10.949l-24.816,32.581
	c-10.303,13.542-26.342,21.493-43.353,21.493h-23.98c-2.341,0-4.242,1.902-4.242,4.243v33.98c0,0.439,0.073,0.878,0.209,1.285
	c0.261,0.836,0.784,1.578,1.484,2.111l9.832,7.367c0.784,0.586,1.337,1.421,1.567,2.373l3.626,14.493
	c0.669,2.684-1.348,5.277-4.117,5.277H86.131c-2.341,0-4.242-1.902-4.242-4.242v-90.728c0-1.64,0.951-3.146,2.435-3.835
	l29.069-13.637c1.494-0.7,2.445-2.204,2.445-3.845v-57.825c0-34.576,25.704-63.761,59.977-68.106l134.04-17.002
	c19.665-2.497,36.352-15.652,43.384-34.198l39.8-105.054l49.674-3.856c12.382-0.961,24.357,4.754,31.368,15.026
	c2.56,3.751,4.221,6.541,4.221,6.541C480.601,89.443,504.163,101.21,504.163,103.507z"/>
<g>
	<path style="fill:#CCA75E;" d="M412.977,70.187l-19.944,1.549l-39.796,105.052c-5.004,13.211-14.91,23.679-27.3,29.516l3.942-0.501
		c19.669-2.495,36.356-10.467,43.384-29.017C373.265,176.788,413.029,70.704,412.977,70.187z"/>
	<path style="fill:#CCA75E;" d="M452.006,466.944l-6.225-25.992c0,0-14.055-54.581-24.562-102.548
		c-6.72,1.261-13.176,2.252-19.364,3.015c10.426,47.21,23.899,99.534,23.899,99.534l6.225,25.992c0.447,1.906,2.165,3.26,4.123,3.26
		h20.028C454.171,470.204,452.453,468.85,452.006,466.944z"/>
	<path style="fill:#CCA75E;" d="M101.916,465.965v-90.725c0-1.647,0.948-3.147,2.436-3.845l29.068-13.636
		c1.489-0.698,2.447-2.198,2.447-3.844v-57.817c0-28.624,17.624-57.089,43.134-68.513l-3.183,0.403
		c-34.274,4.345-59.979,33.535-59.979,68.111v57.817c0,1.645-0.958,3.146-2.446,3.844l-29.068,13.636
		c-1.489,0.698-2.437,2.198-2.437,3.845v90.725c0,2.342,1.898,4.24,4.237,4.24h20.028
		C103.814,470.204,101.916,468.306,101.916,465.965z"/>
</g>
<g>
	<path style="fill:#F2E5CB;" d="M121.015,470.204H86.127c-2.343,0-4.237-1.906-4.237-4.251v-23.971l26.725-3.396
		c0.26,0.834,0.781,1.573,1.489,2.104l9.828,7.376c0.781,0.583,1.343,1.417,1.573,2.365l3.623,14.491
		C125.793,467.61,123.773,470.204,121.015,470.204z"/>
	<path style="fill:#F2E5CB;" d="M444.165,295.622l3.218,22.465c-16.886,5.057-35.119,11.933-46.195,20.313
		c0,0-0.052,0.01-0.157,0.03c-73.112,13.689-115.179-4.377-115.179-4.377s-79.433,9.759-81.053,10.949l31.848-26.311
		c0,0,62.192-11.713,95.629-9.78c16.076,0.934,34.438,0.729,49.17,0.263c16.271-0.514,30.126-11.963,33.72-27.841
		c7.869-34.769,20.685-94.104,22.122-117.809c0,0,8.213-8.296,19.257-8.296l-12.591,111.607
		C442.88,276.408,442.953,286.061,444.165,295.622z"/>
	<path style="fill:#F2E5CB;" d="M431.979,466.944l-6.225-25.992l37.782-10.928c0.333,0.916,0.969,1.698,1.812,2.209l20.354,12.001
		c1.271,0.771,2.062,2.157,2.062,3.646l-2.718,18.075c0,2.344-1.905,4.251-4.247,4.251h-44.695
		C434.145,470.204,432.427,468.85,431.979,466.944"/>
</g>
<path style="fill:#CCA75E;" d="M420.026,47.322l4.222,20.23c2.715,13.008-6.974,26.807-22.332,31.806l-5.795,1.886
	c-5.089,1.656-10.065-1.968-9.458-6.888l3.462-28.024C392.182,44.172,415.931,34.981,420.026,47.322z"/>
<path d="M495.725,88.668c-5.907-3.088-9.736-4.825-12.283-5.803c-0.748-1.177-1.731-2.685-2.889-4.381
	c-8.557-12.538-23.281-19.591-38.446-18.421l-11.234,0.871l-3.175-15.215c-0.062-0.294-0.139-0.583-0.234-0.867
	c-2.487-7.493-9.493-11.715-17.848-10.758c-6.225,0.714-12.663,4.205-17.662,9.581c-3.835,4.123-8.608,11.248-9.619,21.808
	l-2.272,18.39l-34.152,90.136c-6.02,15.876-20.214,27.066-37.043,29.203c-4.293,0.544-7.333,4.468-6.788,8.761
	c0.503,3.959,3.877,6.851,7.765,6.851c0.329,0,0.662-0.021,0.997-0.064c22.593-2.868,41.645-17.888,49.726-39.197l27.017-71.301
	c1.886,0.806,3.92,1.23,5.998,1.23c1.651,0,3.328-0.261,4.969-0.796l5.794-1.886c15.259-4.967,25.859-17.011,27.855-30.258
	l11.122-0.863c9.577-0.744,18.883,3.711,24.289,11.631c2.374,3.478,3.947,6.108,3.96,6.131c1.192,2.001,3.197,3.348,5.451,3.723
	c3.311,1.084,14.517,6.759,19.308,9.808v17.507c0,12.63-10.265,22.904-22.883,22.904h-16.896c-3.988,0-7.34,2.995-7.788,6.958
	l-7.544,66.894c-0.485,4.301,2.609,8.18,6.909,8.666c0.299,0.033,0.595,0.05,0.888,0.05c3.935-0.001,7.327-2.957,7.778-6.959
	l6.759-59.936h9.893c21.261,0,38.557-17.306,38.557-38.578v-20.984C512,98.417,508.806,95.503,495.725,88.668z M399.491,91.906
	l-4.82,1.562l0.799-6.466c0.001-0.008,0.001-0.017,0.003-0.024l2.431-19.685c0.01-0.079,0.019-0.158,0.025-0.238
	c0.758-8.166,5.435-13.605,9.559-15.972c2.018-1.157,3.625-1.452,4.509-1.452c0.216,0,0.389,0.018,0.514,0.045l4.066,19.478
	C418.462,78.18,410.957,88.173,399.491,91.906z"/>
<path d="M489.682,437.484l-18.843-11.109L451.937,294.57c-1.131-8.9-1.197-17.938-0.196-26.863c0.482-4.301-2.614-8.178-6.915-8.66
	c-4.288-0.487-8.178,2.613-8.66,6.915c-1.141,10.183-1.063,20.494,0.233,30.648c0.005,0.04,0.01,0.08,0.017,0.12l18.311,127.684
	l-23.373,6.762c-4.249-16.8-14.473-57.782-22.506-94.448c-0.906-4.139-4.941-6.813-9.1-6.025c-0.813,0.153-1.616,0.296-2.421,0.441
	c-0.032,0.006-0.066,0.011-0.098,0.018c-35.164,6.297-62.46,4.897-79.306,2.562c-18.676-2.587-28.896-6.842-28.975-6.875
	c-1.274-0.545-2.67-0.744-4.048-0.578c-0.199,0.024-20.111,2.474-39.965,5.037c-42.129,5.439-42.636,5.813-44.772,7.382
	c-0.603,0.444-1.138,0.971-1.591,1.565l-24.816,32.586c-8.773,11.518-22.65,18.394-37.122,18.394h-23.976
	c-6.663,0-12.084,5.422-12.084,12.087v28.385l-10.844,1.378v-55.572l26.994-12.662c4.226-1.981,6.957-6.276,6.957-10.94v-57.817
	c0-30.557,22.84-56.496,53.129-60.336l89.48-11.349c4.293-0.544,7.334-4.466,6.789-8.76c-0.544-4.293-4.463-7.332-8.76-6.789
	l-89.48,11.349c-20.535,2.603-38.338,13.29-50.399,28.599h-3.98c-44.802,0-81.251-36.472-81.251-81.304
	c0-44.83,36.449-81.303,81.251-81.303c4.328,0,7.837-3.508,7.837-7.837s-3.509-7.837-7.837-7.837
	c-53.444,0-96.925,43.503-96.925,96.977c0,51.625,40.528,93.954,91.423,96.818c-1.145,2.495-2.173,5.053-3.048,7.679
	c-25.137-2.028-48.506-12.984-66.341-31.235c-19.277-19.726-29.894-45.744-29.894-73.26c0-57.817,47.005-104.855,104.782-104.855
	h90.593c2.166,0,3.929,1.767,3.929,3.94c0,2.171-1.763,3.939-3.929,3.939h-41.253c-4.328,0-7.837,3.508-7.837,7.837
	s3.509,7.837,7.837,7.837h41.253c10.808,0,19.602-8.798,19.602-19.613c0-10.816-8.794-19.613-19.602-19.613h-90.593
	C54.036,46.977,0,101.048,0,167.507c0,31.634,12.2,61.543,34.354,84.217c19.997,20.465,46.057,32.955,74.158,35.719
	c-0.324,2.847-0.51,5.731-0.51,8.655v55.533l-27.004,12.667c-4.22,1.979-6.946,6.272-6.946,10.941v66.745v23.971v0.01
	c0,6.659,5.417,12.077,12.074,12.077h34.888c3.739,0,7.204-1.689,9.506-4.633c2.308-2.951,3.115-6.73,2.208-10.386l-3.608-14.431
	c-0.654-2.709-2.254-5.125-4.486-6.792l-8.393-6.298v-28.592h20.387c14.17,0,27.901-4.95,38.845-13.644l4.838,17.048
	c0.275,0.951,0.649,1.843,1.102,2.638l22.113,38.874l11.427,20.093c0.257,0.453,0.543,0.883,0.852,1.293
	c0.01,0.016,0.02,0.031,0.03,0.047c0.149,0.196,0.324,0.371,0.485,0.558c2.264,2.635,5.583,4.222,9.136,4.222h0.003h35.597
	c0.468,0,0.932-0.026,1.39-0.078c0.279-0.031,0.552-0.091,0.825-0.142c0.176-0.032,0.354-0.051,0.528-0.091
	c0.294-0.067,0.578-0.162,0.864-0.251c0.146-0.046,0.298-0.078,0.443-0.13c0.241-0.085,0.471-0.195,0.706-0.296
	c0.181-0.077,0.368-0.142,0.544-0.229c0.166-0.08,0.322-0.183,0.484-0.271c0.235-0.129,0.474-0.249,0.7-0.394
	c0.093-0.059,0.177-0.131,0.268-0.192c0.285-0.194,0.569-0.388,0.839-0.606c0.029-0.022,0.054-0.051,0.083-0.074
	c0.672-0.555,1.293-1.184,1.843-1.888c0.868-1.111,1.522-2.34,1.954-3.634c0.018-0.053,0.027-0.109,0.044-0.162
	c0.12-0.376,0.229-0.758,0.31-1.144c0.029-0.138,0.04-0.279,0.064-0.416c0.053-0.306,0.111-0.612,0.14-0.922
	c0.017-0.177,0.012-0.354,0.021-0.531c0.014-0.277,0.037-0.553,0.031-0.831c-0.002-0.101-0.018-0.202-0.022-0.303
	c-0.036-0.809-0.139-1.623-0.34-2.428l-4.071-16.305c-0.104-0.403-0.23-0.798-0.374-1.185c-0.002-0.005-0.003-0.011-0.005-0.017
	c-0.085-0.227-0.19-0.444-0.287-0.664c-0.997-2.257-2.659-4.164-4.774-5.452c-0.214-0.131-0.424-0.269-0.648-0.387l-9.317-4.889
	l-7.399-3.883l-11.626-35.354l9.867-47.685c13.613-1.766,28.618-3.654,40.707-5.145c6.367,2.345,26.726,8.801,58.992,9.311
	l-10.955,113.416c-0.325,3.384,0.8,6.77,3.088,9.287c1.376,1.515,3.111,2.633,5.011,3.288c1.255,0.433,2.581,0.671,3.933,0.671
	h0.001h44.195h0.005c1.557,0,3.053-0.312,4.435-0.867c3.685-1.48,6.526-4.739,7.33-8.818l2.965-15.033
	c0.16-0.802,0.231-1.607,0.226-2.407c0-0.05,0.003-0.101,0.002-0.151c-0.003-0.153-0.016-0.305-0.024-0.458
	c-0.007-0.137-0.01-0.275-0.023-0.411c-0.005-0.052-0.014-0.103-0.019-0.154c-0.307-2.968-1.715-5.747-3.979-7.739
	c-0.285-0.251-0.578-0.495-0.89-0.719l-10.93-7.961l12.308-62.458c8.591,36.765,17.126,70.032,17.619,71.952l6.215,25.948
	c0.056,0.236,0.127,0.464,0.196,0.695c0.029,0.097,0.051,0.196,0.083,0.292c0.069,0.212,0.153,0.416,0.233,0.623
	c0.044,0.113,0.081,0.232,0.13,0.344c0.078,0.185,0.169,0.362,0.256,0.541c0.061,0.125,0.116,0.256,0.181,0.379
	c0.085,0.159,0.18,0.31,0.271,0.465c0.079,0.136,0.154,0.275,0.237,0.406c0.088,0.138,0.186,0.266,0.279,0.399
	c0.098,0.141,0.191,0.285,0.296,0.421c0.091,0.118,0.191,0.229,0.286,0.344c0.116,0.141,0.229,0.285,0.351,0.42
	c0.094,0.104,0.196,0.199,0.295,0.3c0.133,0.137,0.262,0.278,0.402,0.408c0.095,0.09,0.199,0.169,0.297,0.255
	c0.15,0.132,0.298,0.268,0.455,0.391c0.098,0.077,0.203,0.146,0.303,0.22c0.165,0.122,0.327,0.248,0.498,0.362
	c0.11,0.073,0.226,0.136,0.337,0.205c0.169,0.106,0.336,0.213,0.511,0.309c0.115,0.064,0.235,0.116,0.351,0.176
	c0.18,0.092,0.356,0.187,0.54,0.27c0.114,0.051,0.233,0.091,0.349,0.139c0.192,0.078,0.383,0.162,0.58,0.231
	c0.135,0.048,0.275,0.084,0.413,0.126c0.184,0.056,0.365,0.119,0.552,0.167c0.151,0.039,0.306,0.066,0.46,0.099
	c0.179,0.039,0.354,0.084,0.536,0.115c0.22,0.037,0.446,0.06,0.671,0.086c0.117,0.014,0.232,0.034,0.35,0.044
	c0.345,0.029,0.694,0.045,1.045,0.045h44.695c0.401,0,0.797-0.02,1.189-0.059c5.868-0.576,10.518-5.368,10.874-11.297l2.652-17.641
	c0.057-0.386,0.087-0.775,0.087-1.165C495.599,443.68,493.363,439.716,489.682,437.484z M89.726,462.368v-13.48l15.6-1.982
	c0.024,0.02,0.049,0.038,0.073,0.056l8.812,6.612l2.198,8.795H89.726V462.368z M227.556,462.368l-7.34-12.904l-0.577-1.014
	l17.167-5.292c0.132,0.078,0.266,0.153,0.402,0.227c0.036,0.02,0.069,0.043,0.106,0.063l13.099,6.871l3.494,1.835l2.548,10.215
	H227.556z M219.089,398.882l9.952,30.268l-17.339,5.347l-16.432-28.888l-7.266-25.609l21.298-27.967
	c3.396-0.577,10.061-1.523,18.388-2.647l-8.943,43.218C218.291,394.731,218.42,396.934,219.089,398.882z M373.186,428.526
	l-21.326,2.893l7.752-80.275c9.066-0.394,18.859-1.26,29.37-2.774L373.186,428.526z M348.873,462.368l1.44-14.921l25.927-3.517
	c0.276,0.241,0.562,0.473,0.86,0.691l6.177,4.499l4.744,3.457l-1.932,9.793h-37.216V462.368z M477.659,462.368h-38.719
	l-3.824-15.966l26.058-7.537c0.064,0.041,0.128,0.079,0.192,0.119l18.196,10.728L477.659,462.368z"/>
<circle cx="454.008" cy="93.906" r="7.837"/>
<circle cx="394.449" cy="151.083" r="7.837"/>
<circle cx="416.862" cy="190.789" r="7.837"/>
<circle cx="365.234" cy="206.462" r="7.837"/>
<circle cx="313.992" cy="239.376" r="7.837"/>
<circle cx="239.804" cy="247.213" r="7.837"/>
<circle cx="203.233" cy="288.016" r="7.837"/>
<circle cx="149.42" cy="307.869" r="7.837"/>
<circle cx="394.449" cy="247.213" r="7.837"/>
<circle cx="365.234" cy="283.785" r="7.837"/>
<circle cx="289.437" cy="283.785" r="7.837"/>
<g>
</g>
<g>
</g>
<g>
</g>
<g>
</g>
<g>
</g>
<g>
</g>
<g>
</g>
<g>
</g>
<g>
</g>
<g>
</g>
<g>
</g>
<g>
</g>
<g>
</g>
<g>
</g>
<g>
</g>
</svg>
