<?xml version="1.0" encoding="iso-8859-1"?>
<!-- Generator: Adobe Illustrator 19.0.0, SVG Export Plug-In . SVG Version: 6.00 Build 0)  -->
<svg version="1.1" id="Layer_1" xmlns="http://www.w3.org/2000/svg" xmlns:xlink="http://www.w3.org/1999/xlink" x="0px" y="0px"
	 viewBox="0 0 512.001 512.001" style="enable-background:new 0 0 512.001 512.001;" xml:space="preserve">
<path style="fill:#F94851;" d="M387.194,357.515L387.194,357.515h-43.988l0,0c0,0-2.458,0-6.102,0
	c-0.668,16.681-3.055,31.426-5.488,42.606v0.001l171.945,66.916L387.194,357.515z"/>
<path style="fill:#0088FA;" d="M331.719,301.068c4.917,19.697,6.082,39.116,5.389,56.447c3.642,0,6.098,0,6.098,0h43.988
	L331.719,301.068z"/>
<path style="fill:#006FEC;" d="M331.719,301.068c2.332,9.341,3.812,18.616,4.659,27.64l28.31,28.807h22.505L331.719,301.068z"/>
<polygon style="fill:#CC333E;" points="503.56,467.038 387.194,357.515 364.688,357.515 465.189,452.104 "/>
<path style="fill:#FF9F34;" d="M72.316,121.357c-14.356-10.255-29.324,3.455-39.018,16.09l0.039-0.008
	c10.649,16.083,38.978,16.432,38.978,16.432v-32.514H72.316z"/>
<path style="fill:#FFD039;" d="M22.689,153.872c0,0,25.669-49.627,49.627-32.514l7.346-56.169
	C79.662,65.189-29.796,62.471,22.689,153.872z"/>
<path style="fill:#F94851;" d="M323.065,422.187c0,0,64.609-177.204-109.733-239.017l-0.021-0.023l-23.726-24.143v-39.013
	c0-41.438-33.592-75.029-75.03-75.029l0,0c-24.721,0-44.761,20.04-44.761,44.761v127.218c0,77.636,62.937,140.573,140.573,140.573
	h17.35C227.717,357.515,277.6,401.715,323.065,422.187z"/>
<path style="fill:#CC333E;" d="M213.332,183.17l-0.021-0.023l-23.727-24.143v-39.013c0-41.438-33.591-75.029-75.029-75.029l0,0
	c-3.371,0-6.65,0.385-9.809,1.092c35.388,6.035,62.333,36.831,62.333,73.939v39.013l23.727,24.143l0.021,0.023
	c149.497,53.004,123.295,190.849,112.792,229.063c6.298,3.461,12.772,6.792,19.447,9.954
	C323.065,422.187,387.673,244.983,213.332,183.17z"/>
<path style="fill:#FFD039;" d="M323.431,421.133c2.922-8.631,21.954-69.134,3.121-129.485c-0.918,0.16-1.847,0.325-2.79,0.503
	c-62.208,11.667-153.464-16.735-166.854-21.078C183.432,311.739,237.614,379.776,323.431,421.133z"/>
<path style="fill:#0088FA;" d="M323.428,421.138c2.234-6.593,13.933-43.648,10.817-87.765
	c-83.578,15.211-136.684-17.166-155.258-31.402C209.34,340.938,256.865,389.062,323.428,421.138z"/>
<path style="fill:#D9D9DB;" d="M70.357,209.274c45.445-9.471,78.941-42.042,78.941-80.765c0-33.119-24.501-61.736-60.025-75.252
	l-0.07-0.033c-11.414,8.112-18.867,21.431-18.867,36.499v119.528L70.357,209.274z"/>
<path style="fill:#ADACB2;" d="M89.272,53.256l-0.07-0.033c-2.808,1.995-5.373,4.31-7.65,6.883
	c27.353,15.115,45.239,40.111,45.239,68.401c0,31.995-22.877,59.774-56.457,73.809v6.933l0.021,0.023
	c45.445-9.471,78.941-42.042,78.941-80.765C149.296,95.391,124.795,66.772,89.272,53.256z"/>
<path style="fill:#FF9F34;" d="M323.431,421.133c2.923-8.631,21.954-69.134,3.12-129.485c-0.918,0.16-1.847,0.325-2.79,0.503
	c-6.044,1.133-12.363,1.885-18.857,2.32c14.047,47.982,4.682,95.546-0.954,116.539C310.253,414.53,316.746,417.911,323.431,421.133z
	"/>
<path style="fill:#006FEC;" d="M323.428,421.138c2.234-6.593,13.933-43.648,10.817-87.765c-7.697,1.401-15.136,2.399-22.313,3.044
	c1.782,31.943-4.023,59.837-7.985,74.596C310.252,414.534,316.743,417.917,323.428,421.138z"/>
<path d="M144.974,233.76c-1.993-4.213-7.023-6.013-11.233-4.024c-4.215,1.991-6.019,7.019-4.028,11.235
	c0.244,0.516,6.111,12.863,18.168,31.687c1.611,2.515,4.335,3.889,7.114,3.889c1.558,0,3.135-0.431,4.545-1.335
	c3.924-2.514,5.068-7.734,2.554-11.659C150.68,245.734,145.031,233.877,144.974,233.76z"/>
<path d="M509.345,460.892l-116.25-109.41l-53.741-54.685c-2.571-9.713-6.02-19.495-10.571-29.157
	c-19.794-42.022-56.214-72.874-108.245-91.742l-19.994-20.345v-35.559c0-46.025-37.444-83.47-83.47-83.47
	c-16.905,0-31.983,7.935-41.735,20.267c-13.567,0.413-53.444,3.898-69.083,30.156c-10.72,17.999-7.655,41.93,9.111,71.128
	c1.507,2.624,4.301,4.237,7.318,4.237c0.063,0,0.124,0,0.187-0.002c3.087-0.068,5.891-1.816,7.311-4.56
	c0.888-1.717,2.33-4.238,4.171-7.113c5.335,4.086,12.162,7.18,20.422,9.24c3.309,0.825,6.429,1.367,9.098,1.728v55.338
	c0,80.693,64.472,146.604,144.607,148.942l-14.06,33.744h-43.146c-4.662,0-8.439,3.779-8.439,8.439s3.777,8.439,8.439,8.439h48.724
	c0.015,0,0.03,0.002,0.045,0.002c0.01,0,0.02-0.002,0.03-0.002h39.761c4.662,0,8.439-3.779,8.439-8.439s-3.777-8.439-8.439-8.439
	h-27.128l14.031-33.675h0.23c26.037,23.435,57.593,46.138,95.006,63.859c1.142,0.541,2.377,0.812,3.613,0.812
	c1.088,0,2.176-0.21,3.205-0.632c2.195-0.901,3.911-2.686,4.724-4.917c0.285-0.78,2.02-5.649,4.102-13.564l55.637,21.652
	c1.006,0.392,2.04,0.577,3.058,0.577c3.378,0,6.568-2.042,7.867-5.381c1.69-4.344-0.46-9.235-4.805-10.925l-58.004-22.574
	c1.593-8.382,3.018-18.164,3.806-28.908h38.669l82.314,77.472l-39.947-15.546c-4.344-1.692-9.235,0.46-10.925,4.804
	c-1.69,4.344,0.46,9.236,4.805,10.925l80.408,31.292c1,0.389,2.036,0.576,3.058,0.576c2.828,0,5.555-1.426,7.139-3.935
	C512.854,468.127,512.287,463.661,509.345,460.892z M80.754,89.724c0-10.603,4.57-20.159,11.84-26.806
	c30.67,13.207,50.242,38.544,50.242,65.592c0,31.064-25.057,58.732-62.083,69.908V89.724H80.754z M20.745,95.609
	C27.535,84.18,42.64,78.805,54.114,76.31c4.283-0.932,8.401-1.542,12.03-1.941c-1.47,4.865-2.269,10.017-2.269,15.355v19.702
	c-2.788-0.239-5.635-0.018-8.502,0.673c-13.337,3.216-24.764,16.207-32.017,26.567C15.7,119.367,14.814,105.593,20.745,95.609z
	 M44.524,137.122c4.638-5.128,9.824-9.415,14.806-10.616c1.615-0.389,3.096-0.388,4.545-0.007v18.045
	C57.624,143.466,49.892,141.253,44.524,137.122z M320.411,410.245c-32.898-16.717-60.867-37.408-84.161-58.65
	c-0.21-0.214-0.431-0.417-0.664-0.608c-25.001-22.896-44.578-46.392-58.987-66.213c-2.741-3.771-8.02-4.602-11.789-1.863
	c-3.771,2.741-4.605,8.019-1.863,11.789c11.939,16.423,27.307,35.279,46.231,54.321c-71.149-1.973-128.423-60.461-128.423-132.079
	v-0.998c46.822-12.238,78.962-47.412,78.962-87.434c0-17.969-6.426-35.364-18.585-50.305c-7.788-9.569-17.687-17.835-29.149-24.438
	c1.665-0.235,3.365-0.365,5.093-0.365c36.718,0,66.591,29.872,66.591,66.591v39.012c0,2.212,0.87,4.338,2.419,5.916l23.726,24.143
	c0.043,0.044,0.09,0.081,0.135,0.124c0.135,0.133,0.275,0.261,0.419,0.385c0.059,0.05,0.118,0.099,0.178,0.147
	c0.167,0.135,0.339,0.263,0.516,0.387c0.046,0.032,0.093,0.063,0.14,0.093c0.191,0.127,0.389,0.245,0.593,0.358
	c0.035,0.019,0.07,0.037,0.105,0.056c0.217,0.116,0.442,0.222,0.673,0.32c0.013,0.006,0.028,0.011,0.043,0.018
	c0.141,0.059,0.277,0.123,0.422,0.174c48.58,17.224,82.367,45.347,100.423,83.588c4.304,9.116,7.499,18.41,9.844,27.669
	c0.07,0.414,0.176,0.821,0.308,1.224C334.556,348.28,325.427,391.9,320.411,410.245z M345.822,349.075
	c0.016-7.328-0.318-14.951-1.123-22.76l22.367,22.76H345.822z"/>
<path d="M113.094,93.07c-5.375,0-9.749,4.366-9.749,9.732s4.374,9.732,9.749,9.732c5.375,0,9.749-4.366,9.749-9.732
	C122.844,97.436,118.471,93.07,113.094,93.07z"/>
<g>
</g>
<g>
</g>
<g>
</g>
<g>
</g>
<g>
</g>
<g>
</g>
<g>
</g>
<g>
</g>
<g>
</g>
<g>
</g>
<g>
</g>
<g>
</g>
<g>
</g>
<g>
</g>
<g>
</g>
</svg>
