<?xml version="1.0" encoding="utf-8"?>
<!-- Generator: Adobe Illustrator 23.0.1, SVG Export Plug-In . SVG Version: 6.00 Build 0)  -->
<svg version="1.1" id="Layer_1" xmlns="http://www.w3.org/2000/svg" x="0px" y="0px"
     viewBox="0 0 512 512" style="enable-background:new 0 0 512 512;" xml:space="preserve">
<style type="text/css">
	.st0{fill:#F94851;}
	.st1{fill:#0088FA;}
	.st2{fill:#006FEC;}
	.st3{fill:#CC333E;}
	.st4{fill:#FF9F34;}
	.st5{fill:#FFD039;}
	.st6{fill:#D9D9DB;}
	.st7{fill:#ADACB2;}
</style>
    <path class="st0" d="M8.4,467l171.9-66.9v0c-2.4-11.2-4.8-25.9-5.5-42.6c-3.6,0-6.1,0-6.1,0l0,0h-44l0,0L8.4,467z"/>
    <path class="st1" d="M124.8,357.5h44c0,0,2.5,0,6.1,0c-0.7-17.3,0.5-36.8,5.4-56.4L124.8,357.5z"/>
    <path class="st2" d="M124.8,357.5h22.5l28.3-28.8c0.8-9,2.3-18.3,4.7-27.6L124.8,357.5z"/>
    <polygon class="st3" points="46.8,452.1 147.3,357.5 124.8,357.5 8.4,467 "/>
    <path class="st4" d="M439.7,121.4v32.5c0,0,28.3-0.3,39-16.4l0,0C469,124.8,454,111.1,439.7,121.4L439.7,121.4z"/>
    <path class="st5" d="M432.3,65.2l7.3,56.2c24-17.1,49.6,32.5,49.6,32.5C541.8,62.5,432.3,65.2,432.3,65.2z"/>
    <path class="st0" d="M284.3,357.5h17.4c77.6,0,140.6-62.9,140.6-140.6V89.7c0-24.7-20-44.8-44.8-44.8l0,0c-41.4,0-75,33.6-75,75v39
	l-23.7,24.1l0,0c-174.3,61.8-109.7,239-109.7,239C234.4,401.7,284.3,357.5,284.3,357.5z"/>
    <path class="st3" d="M188.9,422.2c6.7-3.2,13.1-6.5,19.4-10c-10.5-38.2-36.7-176.1,112.8-229.1l0,0l23.7-24.1v-39
	c0-37.1,26.9-67.9,62.3-73.9c-3.2-0.7-6.4-1.1-9.8-1.1l0,0c-41.4,0-75,33.6-75,75v39l-23.7,24.1l0,0
	C124.3,245,188.9,422.2,188.9,422.2z"/>
    <path class="st5" d="M355.1,271.1c-13.4,4.3-104.6,32.7-166.9,21.1c-0.9-0.2-1.9-0.3-2.8-0.5c-18.8,60.4,0.2,120.9,3.1,129.5
	C274.4,379.8,328.6,311.7,355.1,271.1z"/>
    <path class="st1"
          d="M333,302c-18.6,14.2-71.7,46.6-155.3,31.4c-3.1,44.1,8.6,81.2,10.8,87.8C255.1,389.1,302.7,340.9,333,302z"/>
    <path class="st6" d="M441.7,209.3V89.7c0-15.1-7.5-28.4-18.9-36.5l-0.1,0c-35.5,13.5-60,42.1-60,75.3
	C362.7,167.2,396.2,199.8,441.7,209.3L441.7,209.3z"/>
    <path class="st7" d="M362.7,128.5c0,38.7,33.5,71.3,78.9,80.8l0,0v-6.9c-33.6-14-56.5-41.8-56.5-73.8c0-28.3,17.9-53.3,45.2-68.4
	c-2.3-2.6-4.8-4.9-7.7-6.9l-0.1,0C387.2,66.8,362.7,95.4,362.7,128.5z"/>
    <path class="st4" d="M208,411c-5.6-21-15-68.6-1-116.5c-6.5-0.4-12.8-1.2-18.9-2.3c-0.9-0.2-1.9-0.3-2.8-0.5
	c-18.8,60.4,0.2,120.9,3.1,129.5C195.3,417.9,201.7,414.5,208,411z"/>
    <path class="st2" d="M208.1,411c-4-14.8-9.8-42.7-8-74.6c-7.2-0.6-14.6-1.6-22.3-3c-3.1,44.1,8.6,81.2,10.8,87.8
	C195.3,417.9,201.7,414.5,208.1,411z"/>
    <path d="M349.9,263.6c-2.5,3.9-1.4,9.1,2.6,11.7c1.4,0.9,3,1.3,4.5,1.3c2.8,0,5.5-1.4,7.1-3.9c12.1-18.8,17.9-31.2,18.2-31.7
	c2-4.2,0.2-9.2-4-11.2c-4.2-2-9.2-0.2-11.2,4C367,233.9,361.3,245.7,349.9,263.6z"/>
    <path d="M1.3,471.5c1.6,2.5,4.3,3.9,7.1,3.9c1,0,2.1-0.2,3.1-0.6l80.4-31.3c4.3-1.7,6.5-6.6,4.8-10.9s-6.6-6.5-10.9-4.8l-39.9,15.5
	l82.3-77.5h38.7c0.8,10.7,2.2,20.5,3.8,28.9l-58,22.6c-4.3,1.7-6.5,6.6-4.8,10.9c1.3,3.3,4.5,5.4,7.9,5.4c1,0,2.1-0.2,3.1-0.6
	l55.6-21.7c2.1,7.9,3.8,12.8,4.1,13.6c0.8,2.2,2.5,4,4.7,4.9c1,0.4,2.1,0.6,3.2,0.6c1.2,0,2.5-0.3,3.6-0.8
	c37.4-17.7,69-40.4,95-63.9h0.2l14,33.7h-27.1c-4.7,0-8.4,3.8-8.4,8.4s3.8,8.4,8.4,8.4h39.8c0,0,0,0,0,0c0,0,0,0,0,0h48.7
	c4.7,0,8.4-3.8,8.4-8.4s-3.8-8.4-8.4-8.4h-43.1l-14.1-33.7c80.1-2.3,144.6-68.2,144.6-148.9v-55.3c2.7-0.4,5.8-0.9,9.1-1.7
	c8.3-2.1,15.1-5.2,20.4-9.2c1.8,2.9,3.3,5.4,4.2,7.1c1.4,2.7,4.2,4.5,7.3,4.6c0.1,0,0.1,0,0.2,0c3,0,5.8-1.6,7.3-4.2
	c16.8-29.2,19.8-53.1,9.1-71.1c-15.6-26.3-55.5-29.7-69.1-30.2c-9.8-12.3-24.8-20.3-41.7-20.3c-46,0-83.5,37.4-83.5,83.5v35.6
	l-20,20.3c-52,18.9-88.5,49.7-108.2,91.7c-4.6,9.7-8,19.4-10.6,29.2l-53.7,54.7L2.7,460.9C-0.3,463.7-0.9,468.1,1.3,471.5z
	 M431.2,89.7v108.7c-37-11.2-62.1-38.8-62.1-69.9c0-27,19.6-52.4,50.2-65.6C426.7,69.6,431.2,79.1,431.2,89.7L431.2,89.7z
	 M488.6,136.7c-7.3-10.4-18.7-23.4-32-26.6c-2.9-0.7-5.7-0.9-8.5-0.7V89.7c0-5.3-0.8-10.5-2.3-15.4c3.6,0.4,7.7,1,12,1.9
	c11.5,2.5,26.6,7.9,33.4,19.3C497.2,105.6,496.3,119.4,488.6,136.7z M448.1,144.5v-18c1.4-0.4,2.9-0.4,4.5,0
	c5,1.2,10.2,5.5,14.8,10.6C462.1,141.3,454.4,143.5,448.1,144.5z M188.4,303.6c0.1-0.4,0.2-0.8,0.3-1.2c2.3-9.3,5.5-18.6,9.8-27.7
	c18.1-38.2,51.8-66.4,100.4-83.6c0.1-0.1,0.3-0.1,0.4-0.2c0,0,0,0,0,0c0.2-0.1,0.5-0.2,0.7-0.3c0,0,0.1,0,0.1-0.1
	c0.2-0.1,0.4-0.2,0.6-0.4c0,0,0.1-0.1,0.1-0.1c0.2-0.1,0.3-0.3,0.5-0.4c0.1,0,0.1-0.1,0.2-0.1c0.1-0.1,0.3-0.3,0.4-0.4
	c0,0,0.1-0.1,0.1-0.1l23.7-24.1c1.5-1.6,2.4-3.7,2.4-5.9v-39c0-36.7,29.9-66.6,66.6-66.6c1.7,0,3.4,0.1,5.1,0.4
	c-11.5,6.6-21.4,14.9-29.1,24.4c-12.2,14.9-18.6,32.3-18.6,50.3c0,40,32.1,75.2,79,87.4v1c0,71.6-57.3,130.1-128.4,132.1
	c18.9-19,34.3-37.9,46.2-54.3c2.7-3.8,1.9-9-1.9-11.8c-3.8-2.7-9-1.9-11.8,1.9c-14.4,19.8-34,43.3-59,66.2c-0.2,0.2-0.5,0.4-0.7,0.6
	c-23.3,21.2-51.3,41.9-84.2,58.6C186.6,391.9,177.4,348.3,188.4,303.6z M144.9,349.1l22.4-22.8c-0.8,7.8-1.1,15.4-1.1,22.8H144.9z"
    />
    <path d="M389.2,102.8c0,5.4,4.4,9.7,9.7,9.7s9.7-4.4,9.7-9.7s-4.4-9.7-9.7-9.7C393.5,93.1,389.2,97.4,389.2,102.8z"/>
</svg>
