<?xml version="1.0" encoding="iso-8859-1"?>
<!-- Generator: Adobe Illustrator 19.0.0, SVG Export Plug-In . SVG Version: 6.00 Build 0)  -->
<svg version="1.1" id="Layer_1" xmlns="http://www.w3.org/2000/svg" xmlns:xlink="http://www.w3.org/1999/xlink" x="0px" y="0px"
	 viewBox="0 0 512 512" style="enable-background:new 0 0 512 512;" xml:space="preserve">
<path style="fill:#91CC04;" d="M99.903,340.444H29.068c-11.855,0-21.465-9.61-21.465-21.465s9.61-21.465,21.465-21.465h70.836
	c11.855,0,21.465,9.61,21.465,21.465S111.758,340.444,99.903,340.444z"/>
<g>
	<path style="fill:#85BB04;" d="M99.903,297.513H56.109l0.022,20.292l0.05,0.701c0.547,7.765,2.675,15.197,6.072,21.938h37.65
		c11.855,0,21.465-9.61,21.465-21.465S111.758,297.513,99.903,297.513z"/>
	<path style="fill:#85BB04;" d="M124.374,412.899c11.855,0,21.465-9.61,21.465-21.465c0-39.005,14.986-49.894,15.137-49.966
		c10.736-5.028,15.362-17.808,10.334-28.543c-5.028-10.735-17.807-15.364-28.543-10.334c-4.08,1.91-39.859,20.638-39.859,88.843
		C102.909,403.289,112.519,412.899,124.374,412.899z"/>
</g>
<path style="fill:#79AB03;" d="M142.768,302.59c-3.662,1.714-32.851,16.983-38.798,69.398c8.027,2.103,22.452,5.45,42.314,8.368
	c2.469-30.025,14.557-38.825,14.693-38.888c10.736-5.028,15.362-17.809,10.334-28.543
	C166.283,302.191,153.505,297.561,142.768,302.59z"/>
<path style="fill:#85BB04;" d="M335.606,412.899c-11.855,0-21.465-9.61-21.465-21.465c0-39.005-14.986-49.894-15.137-49.966
	c-10.736-5.028-15.362-17.808-10.334-28.543c5.028-10.735,17.807-15.364,28.543-10.334c4.08,1.91,39.859,20.638,39.859,88.843
	C357.072,403.289,347.46,412.899,335.606,412.899z"/>
<path style="fill:#79AB03;" d="M317.212,302.59c-10.737-5.029-23.516-0.399-28.543,10.334c-5.028,10.736-0.401,23.516,10.334,28.543
	c0.136,0.064,12.246,8.878,14.7,38.971c14.174-1.913,28.337-4.301,42.452-7.16C350.546,319.819,320.904,304.319,317.212,302.59z"/>
<ellipse transform="matrix(-0.7011 -0.7131 0.7131 -0.7011 627.877 828.7356)" style="fill:#85BB04;" cx="487.639" cy="282.767" rx="15.748" ry="17.741"/>
<path style="fill:#91CC04;" d="M350.022,344.445v-85.861h-0.212c14.377-0.147,59.294-6.057,76.531-30.458
	c13.679-19.367,40.468-23.976,59.832-10.296c19.366,13.68,23.975,40.468,10.296,59.833
	C450.621,342.57,360.183,344.445,350.022,344.445z"/>
<path style="fill:#85BB04;" d="M407.104,336.175c0.547-1.345,1.05-2.71,1.497-4.1c8.042-1.956,15.044-6.664,19.909-13.466
	c5.374-7.514,7.501-16.67,5.988-25.784c-1.352-8.146-5.44-15.2-11.229-20.306c0.016-0.738,0.004-16.768-3.398-37.155
	c-20.098,18.355-57.232,23.088-70.061,23.219h0.212v85.86C354.944,344.445,378.702,344.005,407.104,336.175z"/>
<circle style="fill:#C2FB3B;" cx="438.953" cy="237.035" r="22.049"/>
<path style="fill:#9CDD05;" d="M427.961,247.232c-6.544-10.27-3.523-23.9,6.747-30.444c1.093-0.696,2.229-1.261,3.385-1.744
	c-3.778,0.144-7.57,1.24-10.988,3.418c-10.269,6.544-13.29,20.174-6.747,30.444c5.847,9.177,17.347,12.543,27.058,8.491
	C439.845,257.685,432.326,254.082,427.961,247.232z"/>
<path style="fill:#FFC477;" d="M74.274,224.316l0.103,92.765c1.072,15.183,11.269,28.861,26.688,33.61
	c2.945,0.907,50.694,15.221,125.92,15.221c37.847,0,82.663-3.626,132.2-14.407c16.868-3.671,28.642-18.032,29.789-34.424
	l0.102-92.765H74.274z"/>
<path style="fill:#FFB655;" d="M175.077,317.081h-0.104v-92.765H74.274l0.103,92.765c1.072,15.183,11.269,28.861,26.688,33.61
	c2.945,0.907,50.694,15.221,125.92,15.221c15.768,0,32.76-0.643,50.785-2.156c-45.945-4.034-73.779-12.379-76.005-13.065
	C186.346,345.942,176.148,332.263,175.077,317.081z"/>
<path style="fill:#957856;" d="M400.381,298.49c1.747-9.753,2.659-19.795,2.659-30.052c0-93.522-75.814-169.337-169.337-169.337
	S64.367,174.916,64.367,268.438c0,10.256,0.912,20.298,2.659,30.052H400.381z"/>
<g>
	<path style="fill:#806749;" d="M64.367,268.438c0,10.256,0.912,20.298,2.659,30.052h66.533c-1.747-9.753-2.659-19.795-2.659-30.052
		c0-82.135,58.479-150.604,136.07-166.061c-10.758-2.143-21.879-3.275-33.266-3.275C140.181,99.101,64.367,174.916,64.367,268.438z"
		/>
	<path style="fill:#806749;" d="M233.703,99.101c-93.521,0-169.337,75.815-169.337,169.337c0,10.256,0.912,20.298,2.659,30.052
		h166.678L233.703,99.101L233.703,99.101z"/>
</g>
<path style="fill:#6A563D;" d="M64.367,268.438c0,10.256,0.912,20.298,2.659,30.052h66.533c-1.747-9.753-2.659-19.795-2.659-30.052
	c0-69.902,42.357-129.905,102.803-155.758V99.101C140.181,99.101,64.367,174.916,64.367,268.438z"/>
<path style="fill:#957856;" d="M181.709,204.997c0-2.729-2.09-5.401-3.559-7.702l-38.993-61.057
	c-1.282-2.008-3.027-3.622-5.04-4.757c-42.27,30.79-69.75,80.66-69.75,136.958c0,10.256,0.912,20.298,2.659,30.052h114.683V204.997z
	"/>
<g>
	<path style="fill:#806749;" d="M134.117,131.481c-42.27,30.79-69.75,80.66-69.75,136.957c0,10.256,0.912,20.298,2.659,30.052
		h66.533c-1.747-9.753-2.659-19.795-2.659-30.052c0-36.152,11.337-69.653,30.639-97.157l-22.381-35.045
		C137.874,134.228,136.129,132.615,134.117,131.481z"/>
	<path style="fill:#806749;" d="M285.697,204.997c0-2.729,2.09-5.401,3.559-7.702l38.993-61.057c1.282-2.008,3.027-3.622,5.04-4.757
		c42.27,30.79,69.75,80.66,69.75,136.958c0,10.256-0.912,20.298-2.659,30.052H285.697V204.997z"/>
</g>
<path style="fill:#6A563D;" d="M287.007,310.892V204.997c0-2.729-0.781-5.401-2.25-7.702l-38.993-61.057
	c-2.629-4.116-7.176-6.608-12.061-6.608s-9.432,2.492-12.061,6.608l-38.993,61.057c-1.47,2.301-2.251,4.973-2.251,7.702v105.895
	H287.007z"/>
<path style="fill:#5F4D37;" d="M229.045,326.896c-97.549,0-161.132-13.563-165.082-14.428c-7.72-1.691-12.607-9.321-10.916-17.041
	c1.691-7.721,9.321-12.611,17.041-10.917c1.807,0.391,143.782,30.437,327.949-0.139c7.8-1.293,15.167,3.977,16.461,11.774
	c1.294,7.797-3.977,15.167-11.774,16.461C338.199,323.318,279.14,326.896,229.045,326.896z"/>
<path style="fill:#554431;" d="M63.964,312.468c2.925,0.641,38.56,8.244,96.467,12.146c-4.428-3.561-7.361-10.086-6.586-15.744
	c0.837-6.117,4.251-11.318,10.394-12.913c-57.88-3.77-93.255-11.254-94.15-11.447c-7.72-1.694-15.35,3.196-17.041,10.917
	C51.356,303.147,56.244,310.777,63.964,312.468z"/>
<g>
	<path style="fill:#91CC04;" d="M366.53,412.899c-11.855,0-21.465-9.61-21.465-21.465c0-39.005-14.986-49.894-15.137-49.966
		c-10.736-5.028-15.362-17.808-10.334-28.543c5.028-10.735,17.806-15.364,28.543-10.334c4.08,1.91,39.859,20.638,39.859,88.843
		C387.995,403.289,378.385,412.899,366.53,412.899z"/>
	<path style="fill:#91CC04;" d="M94.323,412.899c11.855,0,21.465-9.61,21.465-21.465c0-39.005,14.986-49.894,15.137-49.966
		c10.736-5.028,15.362-17.808,10.334-28.543c-5.028-10.735-17.807-15.364-28.543-10.334c-4.08,1.91-39.859,20.638-39.859,88.843
		C72.858,403.289,82.468,412.899,94.323,412.899z"/>
</g>
<g>
	<path style="fill:#85BB04;" d="M95.235,395.299c0-68.205,35.779-86.933,39.859-88.843c0.344-0.161,0.694-0.284,1.042-0.426
		c-6.217-5.557-15.389-7.203-23.419-3.441c-4.08,1.91-39.859,20.638-39.859,88.843c0,11.855,9.61,21.465,21.465,21.465
		c2.87,0,5.604-0.574,8.106-1.596C98.024,407.371,95.235,401.668,95.235,395.299z"/>
	<path style="fill:#85BB04;" d="M365.619,395.299c0-68.205-35.779-86.933-39.859-88.843c-0.344-0.161-0.694-0.284-1.042-0.426
		c6.217-5.557,15.389-7.203,23.419-3.441c4.08,1.91,39.859,20.638,39.859,88.843c0,11.855-9.61,21.465-21.465,21.465
		c-2.87,0-5.604-0.574-8.106-1.596C362.829,407.371,365.619,401.668,365.619,395.299z"/>
</g>
<g>
	<path style="fill:#6A563D;" d="M365.532,232.178c-3.183,0-6.148-2.013-7.212-5.2c-4.587-13.75-11.405-26.595-20.266-38.176
		c-2.552-3.335-1.917-8.107,1.418-10.66c3.334-2.551,8.106-1.917,10.659,1.418c9.884,12.92,17.493,27.255,22.614,42.605
		c1.329,3.983-0.823,8.289-4.806,9.617C367.14,232.052,366.328,232.178,365.532,232.178z"/>
	<path style="fill:#6A563D;" d="M372.627,275.679c-4.19,0-7.592-3.391-7.603-7.583c-0.018-7.102-0.612-14.229-1.763-21.184
		c-0.685-4.142,2.117-8.056,6.259-8.743c4.137-0.684,8.057,2.116,8.744,6.26c1.284,7.759,1.946,15.71,1.967,23.628
		c0.011,4.2-3.384,7.612-7.583,7.623C372.64,275.679,372.634,275.679,372.627,275.679z"/>
</g>
<path style="fill:#3E3D42;" d="M438.953,244.642c1.997,0,3.964-0.811,5.373-2.23c1.419-1.409,2.23-3.366,2.23-5.373
	s-0.811-3.964-2.23-5.373c-1.409-1.419-3.376-2.23-5.373-2.23c-1.997,0-3.964,0.811-5.373,2.23c-1.419,1.409-2.23,3.376-2.23,5.373
	s0.811,3.964,2.23,5.373C434.99,243.831,436.956,244.642,438.953,244.642z"/>
<path d="M509.118,269.573c2.814-8.012,3.569-16.647,2.09-25.247c-2.289-13.302-9.598-24.95-20.646-32.706
	c-24.375-17.109-49.065-4.948-49.817-4.18c-0.601-0.036-7.337-2.117-17.726,4.591c-7.879,5.086-12.612,13.23-13.535,21.901
	c-0.641,0.443-1.298,0.881-1.976,1.312c-15.58-81.753-87.583-143.748-173.804-143.748c-28.175,0-55.111,6.429-80.06,19.108
	c-23.789,12.089-44.902,29.751-61.058,51.077c-2.535,3.347-1.878,8.116,1.469,10.652c3.347,2.535,8.115,1.876,10.651-1.469
	c8.471-11.182,18.162-21.045,28.81-29.489l-0.024,0.117l39.375,61.815c-0.043,0.56-0.069,1.122-0.069,1.688v83.834
	c-58.553-3.326-95.92-10.687-100.584-11.644l-0.001,0.001c-0.155-2.912-3.076-19.486,5.705-52.366
	c1.084-4.057-1.233-8.239-5.278-9.368c-4.045-1.127-8.24,1.234-9.369,5.278c-10.559,37.815-6.399,54.729-6.194,58.229
	c-0.657,0.334-7.377,2.916-10.211,10.951H29.068C13.04,289.911,0,302.951,0,318.979s13.04,29.068,29.068,29.068h41.855
	c-3.448,11.843-5.668,26.155-5.668,43.387c0,16.028,13.04,29.068,29.068,29.068c5.488,0,10.626-1.53,15.01-4.185
	c4.491,2.726,9.653,4.185,15.041,4.185c16.028,0,29.068-13.04,29.068-29.068c0-8.268,0.709-15.751,2.109-22.34
	c19.685,2.515,43.731,4.42,71.435,4.42c4.199,0,7.603-3.403,7.603-7.603c0-4.2-3.404-7.603-7.603-7.603
	c-39.871,0-71.884-4.04-93.87-8.057c0.891-1.223,1.609-1.989,2-2.371c6.923-3.556,11.846-9.568,14.202-16.464
	c26,2.038,52.782,3.084,79.728,3.084c27.334,0,55.047-1.085,82.452-3.198c2.341,6.948,7.279,13.008,14.24,16.581
	c0.349,0.34,0.955,0.983,1.71,1.979c-20.676,3.456-41.54,5.882-62.166,7.209c-4.191,0.27-7.448,3.891-7.099,8.076
	c0.691,8.293,7.909,7.11,8.076,7.099c12.629-0.812,25.345-2.03,38.053-3.628c1.47,6.71,2.225,14.35,2.225,22.818
	c0,16.028,13.04,29.068,29.068,29.068c5.503,0,10.869-1.582,15.468-4.468c4.481,2.825,9.779,4.468,15.457,4.468
	c16.028,0,29.068-13.04,29.068-29.068c0-17.281-2.233-31.626-5.698-43.489c28.474-5.33,62.873-16.857,90.697-41.372
	c1.658,0.365,14.313,1.984,23.387-7.182C512.334,290.957,514.361,278.836,509.118,269.573z M29.068,332.841
	c-7.644,0-13.862-6.218-13.862-13.862s6.218-13.862,13.862-13.862h17.086c3.552,12.734,18.441,15.264,20.989,15.762
	c0.593,4.138,1.755,8.158,3.439,11.962L29.068,332.841L29.068,332.841z M65.59,305.04c-1.75-0.383-5.916-1.89-5.116-7.987
	c0.736-5.612,6.236-5.503,8.006-5.112c0.43,0.092,13.717,2.892,37.094,5.936c-3.417,2.129-8.493,5.851-13.904,11.765
	C75.827,307.246,66.607,305.263,65.59,305.04z M140.485,366.935c-1.485,7.388-2.183,15.582-2.249,24.499
	c-0.11,14.951-16.704,13.638-18.038,13.218c2.036-3.969,3.192-8.46,3.192-13.218c0-11.593,1.405-20.376,3.255-26.925
	C130.865,365.319,135.482,366.138,140.485,366.935z M134.855,326.748c-1.261,3.482-3.802,6.265-7.167,7.84
	c-1.951,0.918-6.803,5.004-11.202,13.888c-5.509,11.128-8.301,25.58-8.301,42.957c0,7.644-6.218,13.862-13.862,13.862
	s-13.862-6.218-13.862-13.862c0-63.509,31.849-80.258,35.481-81.959c1.861-0.872,12.667-5.052,18.433,6.674
	C136.009,319.472,136.116,323.267,134.855,326.748z M431.19,224.857c2.327-1.482,5.004-2.266,7.742-2.266
	c4.973,0,9.536,2.5,12.203,6.687c2.073,3.254,2.755,7.121,1.921,10.889c-0.834,3.767-3.087,6.984-6.341,9.057
	c-2.327,1.482-5.004,2.266-7.742,2.266c-4.973,0-9.536-2.5-12.203-6.687C422.49,238.084,424.473,229.137,431.19,224.857z
	 M233.704,137.233c2.301,0,4.414,1.158,5.653,3.097l38.993,61.056c0.69,1.081,1.055,2.33,1.055,3.612v84.288
	c-33.655,1.597-64.438,1.411-91.4,0.293v-84.58c0-1.282,0.365-2.53,1.054-3.611l38.993-61.057
	C229.29,138.39,231.402,137.233,233.704,137.233z M252.171,132.145c-2.623-4.107-6.45-7.132-10.864-8.758v-16.498
	c29.533,1.374,57.017,10.705,80.361,25.894l0,0l-34.636,53.948L252.171,132.145z M145.865,132.616l-0.139-0.034
	c23.727-15.426,51.28-24.357,80.373-25.687v16.492c-4.414,1.626-8.242,4.651-10.864,8.758l-34.881,54.618L145.865,132.616z
	 M312.707,309.701c-0.981,2.094-1.683,4.248-2.134,6.42c-27.099,2.097-54.501,3.172-81.529,3.172c-26.62,0-53.072-1.035-78.74-3.053
	c-0.45-2.212-1.161-4.407-2.16-6.54c-1.374-2.933-3.223-5.554-5.411-7.817c43.946,3.819,104.775,5.999,175.301,0.089
	C315.883,304.215,314.063,306.805,312.707,309.701z M294.61,288.449v-80.59c0-0.603-0.031-4.065-0.081-4.662l39.5-61.523l0,0
	c64.913,49.459,61.322,132.56,61.169,135.455l0,0C359.867,282.934,326.102,286.489,294.61,288.449z M321.744,391.434
	c-0.064-9.073-0.779-17.418-2.318-24.911c4.9-0.735,9.793-1.529,14.675-2.377c1.902,6.585,3.361,15.476,3.361,27.288
	c0,4.653,1.105,9.052,3.057,12.956C338.973,404.975,321.854,407.229,321.744,391.434z M366.53,405.296
	c-7.644,0-13.862-6.218-13.862-13.862c0-17.377-2.793-31.829-8.301-42.957c-4.399-8.886-9.25-12.97-11.215-13.894
	c-3.354-1.57-5.894-4.353-7.155-7.835c-1.26-3.482-1.276-7.34,0.48-10.598c5.726-10.615,16.572-7.546,18.434-6.675
	c3.632,1.701,35.48,18.448,35.48,81.959C380.392,399.078,374.174,405.296,366.53,405.296z M369.426,309.911
	c-5.298-5.845-10.297-9.589-13.757-11.788c14.24-1.724,28.793-3.789,43.611-6.249c3.653-0.607,7.173,1.861,7.717,5.518
	c0.73,4.916-3.751,7.421-5.518,7.715C390.879,306.865,380.105,308.477,369.426,309.911z M490.26,273.277
	c-25.125,35.568-64.363,51.469-97.049,58.497c1.378-3.338,2.363-6.835,2.92-10.399c2.621-0.415,5.235-0.836,7.838-1.268
	c5.774-0.958,10.83-4.108,14.235-8.869c3.405-4.761,4.752-10.562,3.794-16.336c-1.182-7.121-5.692-12.875-11.674-15.932
	l-0.001,0.001c0.206-3.507,0.037-21.921-0.498-27.51c0.852-0.45,1.684-0.91,2.503-1.377c0.482,0.981,7.734,15.222,26.645,16.612
	c5.623,0.414,11.141-1.608,15.913-4.648c6.68-4.256,11.302-10.858,13.016-18.591c1.713-7.733,0.314-15.67-3.943-22.35
	c-0.801-1.257-1.694-2.43-2.651-3.533c7.234-0.02,14.398,2.173,20.479,6.469c7.708,5.444,12.833,13.564,14.434,22.864
	C497.822,256.207,495.705,265.57,490.26,273.277z"/>
<path d="M74.712,209.527c-3.867-1.635-5.677-6.097-4.041-9.964c2.701-6.385,5.816-12.683,9.261-18.718
	c2.081-3.647,6.724-4.919,10.372-2.834c3.646,2.081,4.916,6.725,2.834,10.372c-3.148,5.515-5.968,11.282-8.462,17.104
	C82.105,211.492,75.679,209.936,74.712,209.527z"/>
<g>
</g>
<g>
</g>
<g>
</g>
<g>
</g>
<g>
</g>
<g>
</g>
<g>
</g>
<g>
</g>
<g>
</g>
<g>
</g>
<g>
</g>
<g>
</g>
<g>
</g>
<g>
</g>
<g>
</g>
</svg>
